<svg id="visual" viewBox="0 0 960 540" width="960" height="540" xmlns="http://www.w3.org/2000/svg" xmlns:xlink="http://www.w3.org/1999/xlink" version="1.1"><rect x="0" y="0" width="960" height="540" fill="#000b14"></rect><defs><linearGradient id="grad1_0" x1="43.8%" y1="0%" x2="100%" y2="100%"><stop offset="14.444444444444446%" stop-color="#f7770f" stop-opacity="1"></stop><stop offset="85.55555555555554%" stop-color="#f7770f" stop-opacity="1"></stop></linearGradient></defs><defs><linearGradient id="grad1_1" x1="43.8%" y1="0%" x2="100%" y2="100%"><stop offset="14.444444444444446%" stop-color="#f7770f" stop-opacity="1"></stop><stop offset="85.55555555555554%" stop-color="#e94f42" stop-opacity="1"></stop></linearGradient></defs><defs><linearGradient id="grad1_2" x1="43.8%" y1="0%" x2="100%" y2="100%"><stop offset="14.444444444444446%" stop-color="#c8365d" stop-opacity="1"></stop><stop offset="85.55555555555554%" stop-color="#e94f42" stop-opacity="1"></stop></linearGradient></defs><defs><linearGradient id="grad1_3" x1="43.8%" y1="0%" x2="100%" y2="100%"><stop offset="14.444444444444446%" stop-color="#c8365d" stop-opacity="1"></stop><stop offset="85.55555555555554%" stop-color="#993169" stop-opacity="1"></stop></linearGradient></defs><defs><linearGradient id="grad1_4" x1="43.8%" y1="0%" x2="100%" y2="100%"><stop offset="14.444444444444446%" stop-color="#643066" stop-opacity="1"></stop><stop offset="85.55555555555554%" stop-color="#993169" stop-opacity="1"></stop></linearGradient></defs><defs><linearGradient id="grad1_5" x1="43.8%" y1="0%" x2="100%" y2="100%"><stop offset="14.444444444444446%" stop-color="#643066" stop-opacity="1"></stop><stop offset="85.55555555555554%" stop-color="#342a53" stop-opacity="1"></stop></linearGradient></defs><defs><linearGradient id="grad1_6" x1="43.8%" y1="0%" x2="100%" y2="100%"><stop offset="14.444444444444446%" stop-color="#121e35" stop-opacity="1"></stop><stop offset="85.55555555555554%" stop-color="#342a53" stop-opacity="1"></stop></linearGradient></defs><defs><linearGradient id="grad1_7" x1="43.8%" y1="0%" x2="100%" y2="100%"><stop offset="14.444444444444446%" stop-color="#121e35" stop-opacity="1"></stop><stop offset="85.55555555555554%" stop-color="#000b14" stop-opacity="1"></stop></linearGradient></defs><defs><linearGradient id="grad2_0" x1="0%" y1="0%" x2="56.3%" y2="100%"><stop offset="14.444444444444446%" stop-color="#f7770f" stop-opacity="1"></stop><stop offset="85.55555555555554%" stop-color="#f7770f" stop-opacity="1"></stop></linearGradient></defs><defs><linearGradient id="grad2_1" x1="0%" y1="0%" x2="56.3%" y2="100%"><stop offset="14.444444444444446%" stop-color="#e94f42" stop-opacity="1"></stop><stop offset="85.55555555555554%" stop-color="#f7770f" stop-opacity="1"></stop></linearGradient></defs><defs><linearGradient id="grad2_2" x1="0%" y1="0%" x2="56.3%" y2="100%"><stop offset="14.444444444444446%" stop-color="#e94f42" stop-opacity="1"></stop><stop offset="85.55555555555554%" stop-color="#c8365d" stop-opacity="1"></stop></linearGradient></defs><defs><linearGradient id="grad2_3" x1="0%" y1="0%" x2="56.3%" y2="100%"><stop offset="14.444444444444446%" stop-color="#993169" stop-opacity="1"></stop><stop offset="85.55555555555554%" stop-color="#c8365d" stop-opacity="1"></stop></linearGradient></defs><defs><linearGradient id="grad2_4" x1="0%" y1="0%" x2="56.3%" y2="100%"><stop offset="14.444444444444446%" stop-color="#993169" stop-opacity="1"></stop><stop offset="85.55555555555554%" stop-color="#643066" stop-opacity="1"></stop></linearGradient></defs><defs><linearGradient id="grad2_5" x1="0%" y1="0%" x2="56.3%" y2="100%"><stop offset="14.444444444444446%" stop-color="#342a53" stop-opacity="1"></stop><stop offset="85.55555555555554%" stop-color="#643066" stop-opacity="1"></stop></linearGradient></defs><defs><linearGradient id="grad2_6" x1="0%" y1="0%" x2="56.3%" y2="100%"><stop offset="14.444444444444446%" stop-color="#342a53" stop-opacity="1"></stop><stop offset="85.55555555555554%" stop-color="#121e35" stop-opacity="1"></stop></linearGradient></defs><defs><linearGradient id="grad2_7" x1="0%" y1="0%" x2="56.3%" y2="100%"><stop offset="14.444444444444446%" stop-color="#000b14" stop-opacity="1"></stop><stop offset="85.55555555555554%" stop-color="#121e35" stop-opacity="1"></stop></linearGradient></defs><g transform="translate(960, 0)"><path d="M0 486C-24.8 419.7 -49.5 353.4 -94.2 351.6C-138.9 349.8 -203.6 412.6 -236.5 409.6C-269.4 406.6 -270.7 337.8 -304.1 304.1C-337.4 270.3 -402.9 271.6 -420.9 243C-438.9 214.4 -409.5 156 -412.5 110.5C-415.4 65 -450.7 32.5 -486 0L0 0Z" fill="#0a1624"></path><path d="M0 425.3C-21.7 367.2 -43.3 309.2 -82.4 307.6C-121.5 306.1 -178.1 361.1 -206.9 358.4C-235.8 355.8 -236.9 295.6 -266 266C-295.2 236.5 -352.5 237.6 -368.3 212.6C-384 187.6 -358.3 136.5 -360.9 96.7C-363.5 56.9 -394.4 28.5 -425.2 0L0 0Z" fill="#212544"></path><path d="M0 364.5C-18.6 314.8 -37.1 265 -70.7 263.7C-104.2 262.4 -152.7 309.5 -177.4 307.2C-202.1 305 -203 253.4 -228 228C-253.1 202.7 -302.1 203.7 -315.7 182.3C-329.2 160.8 -307.1 117 -309.3 82.9C-311.5 48.8 -338 24.4 -364.5 0L0 0Z" fill="#4b2e5e"></path><path d="M0 303.8C-15.5 262.3 -30.9 220.8 -58.9 219.7C-86.8 218.6 -127.2 257.9 -147.8 256C-168.4 254.1 -169.2 211.1 -190 190C-210.9 168.9 -251.8 169.7 -263.1 151.9C-274.3 134 -255.9 97.5 -257.8 69.1C-259.6 40.6 -281.7 20.3 -303.7 0L0 0Z" fill="#7f316a"></path><path d="M0 243C-12.4 209.8 -24.8 176.7 -47.1 175.8C-69.5 174.9 -101.8 206.3 -118.2 204.8C-134.7 203.3 -135.4 168.9 -152 152C-168.7 135.1 -201.4 135.8 -210.4 121.5C-219.5 107.2 -204.8 78 -206.2 55.3C-207.7 32.5 -225.3 16.3 -243 0L0 0Z" fill="#b13265"></path><path d="M0 182.3C-9.3 157.4 -18.6 132.5 -35.3 131.8C-52.1 131.2 -76.3 154.7 -88.7 153.6C-101 152.5 -101.5 126.7 -114 114C-126.5 101.4 -151.1 101.8 -157.8 91.1C-164.6 80.4 -153.6 58.5 -154.7 41.4C-155.8 24.4 -169 12.2 -182.2 0L0 0Z" fill="#db4051"></path><path d="M0 121.5C-6.2 104.9 -12.4 88.3 -23.6 87.9C-34.7 87.5 -50.9 103.2 -59.1 102.4C-67.4 101.7 -67.7 84.5 -76 76C-84.4 67.6 -100.7 67.9 -105.2 60.8C-109.7 53.6 -102.4 39 -103.1 27.6C-103.8 16.3 -112.7 8.1 -121.5 0L0 0Z" fill="#f3622f"></path><path d="M0 60.8C-3.1 52.5 -6.2 44.2 -11.8 43.9C-17.4 43.7 -25.4 51.6 -29.6 51.2C-33.7 50.8 -33.8 42.2 -38 38C-42.2 33.8 -50.4 33.9 -52.6 30.4C-54.9 26.8 -51.2 19.5 -51.6 13.8C-51.9 8.1 -56.3 4.1 -60.7 0L0 0Z" fill="#f7770f"></path></g><g transform="translate(0, 540)"><path d="M0 -486C45.7 -483 91.3 -480 119.6 -446.3C147.8 -412.5 158.7 -348.1 182.5 -316.1C206.3 -284.1 243 -284.6 270.8 -270.8C298.7 -257 317.7 -228.9 354.2 -204.5C390.7 -180.1 444.6 -159.3 469.4 -125.8C494.3 -92.3 490.2 -46.2 486 0L0 0Z" fill="#0a1624"></path><path d="M0 -425.2C39.9 -422.6 79.9 -420 104.6 -390.5C129.4 -361 138.9 -304.6 159.7 -276.6C180.5 -248.6 212.6 -249 237 -237C261.3 -224.9 278 -200.3 309.9 -178.9C341.8 -157.6 389 -139.4 410.8 -110.1C432.5 -80.8 428.9 -40.4 425.3 0L0 0Z" fill="#212544"></path><path d="M0 -364.5C34.2 -362.2 68.5 -360 89.7 -334.7C110.9 -309.4 119 -261.1 136.9 -237.1C154.7 -213.1 182.2 -213.5 203.1 -203.1C224 -192.8 238.3 -171.7 265.7 -153.4C293 -135 333.4 -119.4 352.1 -94.3C370.7 -69.2 367.6 -34.6 364.5 0L0 0Z" fill="#4b2e5e"></path><path d="M0 -303.7C28.5 -301.9 57.1 -300 74.7 -278.9C92.4 -257.8 99.2 -217.5 114.1 -197.6C128.9 -177.6 151.8 -177.9 169.3 -169.3C186.7 -160.6 198.6 -143.1 221.4 -127.8C244.2 -112.5 277.9 -99.5 293.4 -78.6C308.9 -57.7 306.3 -28.8 303.8 0L0 0Z" fill="#7f316a"></path><path d="M0 -243C22.8 -241.5 45.7 -240 59.8 -223.1C73.9 -206.3 79.4 -174 91.2 -158C103.1 -142.1 121.5 -142.3 135.4 -135.4C149.3 -128.5 158.9 -114.5 177.1 -102.3C195.3 -90 222.3 -79.6 234.7 -62.9C247.2 -46.2 245.1 -23.1 243 0L0 0Z" fill="#b13265"></path><path d="M0 -182.2C17.1 -181.1 34.2 -180 44.8 -167.3C55.4 -154.7 59.5 -130.5 68.4 -118.5C77.4 -106.5 91.1 -106.7 101.6 -101.6C112 -96.4 119.1 -85.9 132.8 -76.7C146.5 -67.5 166.7 -59.7 176 -47.2C185.4 -34.6 183.8 -17.3 182.3 0L0 0Z" fill="#db4051"></path><path d="M0 -121.5C11.4 -120.7 22.8 -120 29.9 -111.6C37 -103.1 39.7 -87 45.6 -79C51.6 -71 60.7 -71.2 67.7 -67.7C74.7 -64.3 79.4 -57.2 88.6 -51.1C97.7 -45 111.1 -39.8 117.4 -31.4C123.6 -23.1 122.5 -11.5 121.5 0L0 0Z" fill="#f3622f"></path><path d="M0 -60.7C5.7 -60.4 11.4 -60 14.9 -55.8C18.5 -51.6 19.8 -43.5 22.8 -39.5C25.8 -35.5 30.4 -35.6 33.9 -33.9C37.3 -32.1 39.7 -28.6 44.3 -25.6C48.8 -22.5 55.6 -19.9 58.7 -15.7C61.8 -11.5 61.3 -5.8 60.8 0L0 0Z" fill="#f7770f"></path></g></svg>