<svg id="visual" viewBox="0 0 1920 1080" width="1920" height="1080" xmlns="http://www.w3.org/2000/svg" xmlns:xlink="http://www.w3.org/1999/xlink" version="1.1"><rect x="0" y="0" width="1920" height="1080" fill="#000b14"></rect><path d="M0 687L17.8 658.5C35.7 630 71.3 573 106.8 542C142.3 511 177.7 506 213.2 522.2C248.7 538.3 284.3 575.7 320 583.7C355.7 591.7 391.3 570.3 426.8 581.3C462.3 592.3 497.7 635.7 533.2 645.5C568.7 655.3 604.3 631.7 640 600.3C675.7 569 711.3 530 746.8 522.2C782.3 514.3 817.7 537.7 853.2 570.8C888.7 604 924.3 647 960 657.8C995.7 668.7 1031.3 647.3 1066.8 638.3C1102.3 629.3 1137.7 632.7 1173.2 622C1208.7 611.3 1244.3 586.7 1280 588.8C1315.7 591 1351.3 620 1386.8 643.8C1422.3 667.7 1457.7 686.3 1493.2 691.5C1528.7 696.7 1564.3 688.3 1600 652.7C1635.7 617 1671.3 554 1706.8 552.7C1742.3 551.3 1777.7 611.7 1813.2 644.3C1848.7 677 1884.3 682 1902.2 684.5L1920 687L1920 1081L1902.2 1081C1884.3 1081 1848.7 1081 1813.2 1081C1777.7 1081 1742.3 1081 1706.8 1081C1671.3 1081 1635.7 1081 1600 1081C1564.3 1081 1528.7 1081 1493.2 1081C1457.7 1081 1422.3 1081 1386.8 1081C1351.3 1081 1315.7 1081 1280 1081C1244.3 1081 1208.7 1081 1173.2 1081C1137.7 1081 1102.3 1081 1066.8 1081C1031.3 1081 995.7 1081 960 1081C924.3 1081 888.7 1081 853.2 1081C817.7 1081 782.3 1081 746.8 1081C711.3 1081 675.7 1081 640 1081C604.3 1081 568.7 1081 533.2 1081C497.7 1081 462.3 1081 426.8 1081C391.3 1081 355.7 1081 320 1081C284.3 1081 248.7 1081 213.2 1081C177.7 1081 142.3 1081 106.8 1081C71.3 1081 35.7 1081 17.8 1081L0 1081Z" fill="#e67415"></path><path d="M0 607L17.8 626.2C35.7 645.3 71.3 683.7 106.8 705.7C142.3 727.7 177.7 733.3 213.2 709.7C248.7 686 284.3 633 320 625C355.7 617 391.3 654 426.8 655.5C462.3 657 497.7 623 533.2 611C568.7 599 604.3 609 640 620.2C675.7 631.3 711.3 643.7 746.8 663.5C782.3 683.3 817.7 710.7 853.2 722.3C888.7 734 924.3 730 960 726C995.7 722 1031.3 718 1066.8 702.8C1102.3 687.7 1137.7 661.3 1173.2 670.3C1208.7 679.3 1244.3 723.7 1280 745.5C1315.7 767.3 1351.3 766.7 1386.8 747.2C1422.3 727.7 1457.7 689.3 1493.2 673.7C1528.7 658 1564.3 665 1600 651.8C1635.7 638.7 1671.3 605.3 1706.8 615C1742.3 624.7 1777.7 677.3 1813.2 698C1848.7 718.7 1884.3 707.3 1902.2 701.7L1920 696L1920 1081L1902.2 1081C1884.3 1081 1848.7 1081 1813.2 1081C1777.7 1081 1742.3 1081 1706.8 1081C1671.3 1081 1635.7 1081 1600 1081C1564.3 1081 1528.7 1081 1493.2 1081C1457.7 1081 1422.3 1081 1386.8 1081C1351.3 1081 1315.7 1081 1280 1081C1244.3 1081 1208.7 1081 1173.2 1081C1137.7 1081 1102.3 1081 1066.8 1081C1031.3 1081 995.7 1081 960 1081C924.3 1081 888.7 1081 853.2 1081C817.7 1081 782.3 1081 746.8 1081C711.3 1081 675.7 1081 640 1081C604.3 1081 568.7 1081 533.2 1081C497.7 1081 462.3 1081 426.8 1081C391.3 1081 355.7 1081 320 1081C284.3 1081 248.7 1081 213.2 1081C177.7 1081 142.3 1081 106.8 1081C71.3 1081 35.7 1081 17.8 1081L0 1081Z" fill="#e7690b"></path><path d="M0 695L17.8 701C35.7 707 71.3 719 106.8 731C142.3 743 177.7 755 213.2 747.8C248.7 740.7 284.3 714.3 320 713.7C355.7 713 391.3 738 426.8 748.2C462.3 758.3 497.7 753.7 533.2 738.2C568.7 722.7 604.3 696.3 640 695C675.7 693.7 711.3 717.3 746.8 722.3C782.3 727.3 817.7 713.7 853.2 722.5C888.7 731.3 924.3 762.7 960 776.5C995.7 790.3 1031.3 786.7 1066.8 790.5C1102.3 794.3 1137.7 805.7 1173.2 792.7C1208.7 779.7 1244.3 742.3 1280 731C1315.7 719.7 1351.3 734.3 1386.8 726.7C1422.3 719 1457.7 689 1493.2 685.3C1528.7 681.7 1564.3 704.3 1600 725.7C1635.7 747 1671.3 767 1706.8 782.8C1742.3 798.7 1777.7 810.3 1813.2 792.3C1848.7 774.3 1884.3 726.7 1902.2 702.8L1920 679L1920 1081L1902.2 1081C1884.3 1081 1848.7 1081 1813.2 1081C1777.7 1081 1742.3 1081 1706.8 1081C1671.3 1081 1635.7 1081 1600 1081C1564.3 1081 1528.7 1081 1493.2 1081C1457.7 1081 1422.3 1081 1386.8 1081C1351.3 1081 1315.7 1081 1280 1081C1244.3 1081 1208.7 1081 1173.2 1081C1137.7 1081 1102.3 1081 1066.8 1081C1031.3 1081 995.7 1081 960 1081C924.3 1081 888.7 1081 853.2 1081C817.7 1081 782.3 1081 746.8 1081C711.3 1081 675.7 1081 640 1081C604.3 1081 568.7 1081 533.2 1081C497.7 1081 462.3 1081 426.8 1081C391.3 1081 355.7 1081 320 1081C284.3 1081 248.7 1081 213.2 1081C177.7 1081 142.3 1081 106.8 1081C71.3 1081 35.7 1081 17.8 1081L0 1081Z" fill="#e85c03"></path><path d="M0 858L17.8 865.8C35.7 873.7 71.3 889.3 106.8 877.2C142.3 865 177.7 825 213.2 824C248.7 823 284.3 861 320 873.2C355.7 885.3 391.3 871.7 426.8 852.3C462.3 833 497.7 808 533.2 807.2C568.7 806.3 604.3 829.7 640 847.5C675.7 865.3 711.3 877.7 746.8 883.8C782.3 890 817.7 890 853.2 888C888.7 886 924.3 882 960 858.8C995.7 835.7 1031.3 793.3 1066.8 786.5C1102.3 779.7 1137.7 808.3 1173.2 829.7C1208.7 851 1244.3 865 1280 868C1315.7 871 1351.3 863 1386.8 849C1422.3 835 1457.7 815 1493.2 808.5C1528.7 802 1564.3 809 1600 808.3C1635.7 807.7 1671.3 799.3 1706.8 796.2C1742.3 793 1777.7 795 1813.2 814.7C1848.7 834.3 1884.3 871.7 1902.2 890.3L1920 909L1920 1081L1902.2 1081C1884.3 1081 1848.7 1081 1813.2 1081C1777.7 1081 1742.3 1081 1706.8 1081C1671.3 1081 1635.7 1081 1600 1081C1564.3 1081 1528.7 1081 1493.2 1081C1457.7 1081 1422.3 1081 1386.8 1081C1351.3 1081 1315.7 1081 1280 1081C1244.3 1081 1208.7 1081 1173.2 1081C1137.7 1081 1102.3 1081 1066.8 1081C1031.3 1081 995.7 1081 960 1081C924.3 1081 888.7 1081 853.2 1081C817.7 1081 782.3 1081 746.8 1081C711.3 1081 675.7 1081 640 1081C604.3 1081 568.7 1081 533.2 1081C497.7 1081 462.3 1081 426.8 1081C391.3 1081 355.7 1081 320 1081C284.3 1081 248.7 1081 213.2 1081C177.7 1081 142.3 1081 106.8 1081C71.3 1081 35.7 1081 17.8 1081L0 1081Z" fill="#e94e00"></path><path d="M0 875L17.8 872.8C35.7 870.7 71.3 866.3 106.8 866.7C142.3 867 177.7 872 213.2 871.3C248.7 870.7 284.3 864.3 320 858C355.7 851.7 391.3 845.3 426.8 864.7C462.3 884 497.7 929 533.2 951.2C568.7 973.3 604.3 972.7 640 966.5C675.7 960.3 711.3 948.7 746.8 927.8C782.3 907 817.7 877 853.2 870C888.7 863 924.3 879 960 900.8C995.7 922.7 1031.3 950.3 1066.8 958.8C1102.3 967.3 1137.7 956.7 1173.2 945.2C1208.7 933.7 1244.3 921.3 1280 902.7C1315.7 884 1351.3 859 1386.8 870.7C1422.3 882.3 1457.7 930.7 1493.2 942.8C1528.7 955 1564.3 931 1600 909.3C1635.7 887.7 1671.3 868.3 1706.8 860.3C1742.3 852.3 1777.7 855.7 1813.2 860.8C1848.7 866 1884.3 873 1902.2 876.5L1920 880L1920 1081L1902.2 1081C1884.3 1081 1848.7 1081 1813.2 1081C1777.7 1081 1742.3 1081 1706.8 1081C1671.3 1081 1635.7 1081 1600 1081C1564.3 1081 1528.7 1081 1493.2 1081C1457.7 1081 1422.3 1081 1386.8 1081C1351.3 1081 1315.7 1081 1280 1081C1244.3 1081 1208.7 1081 1173.2 1081C1137.7 1081 1102.3 1081 1066.8 1081C1031.3 1081 995.7 1081 960 1081C924.3 1081 888.7 1081 853.2 1081C817.7 1081 782.3 1081 746.8 1081C711.3 1081 675.7 1081 640 1081C604.3 1081 568.7 1081 533.2 1081C497.7 1081 462.3 1081 426.8 1081C391.3 1081 355.7 1081 320 1081C284.3 1081 248.7 1081 213.2 1081C177.7 1081 142.3 1081 106.8 1081C71.3 1081 35.7 1081 17.8 1081L0 1081Z" fill="#ea3c00"></path><path d="M0 924L17.8 931.5C35.7 939 71.3 954 106.8 972.2C142.3 990.3 177.7 1011.7 213.2 1009.7C248.7 1007.7 284.3 982.3 320 972.7C355.7 963 391.3 969 426.8 969.7C462.3 970.3 497.7 965.7 533.2 976.8C568.7 988 604.3 1015 640 1027C675.7 1039 711.3 1036 746.8 1029C782.3 1022 817.7 1011 853.2 998.5C888.7 986 924.3 972 960 976.8C995.7 981.7 1031.3 1005.3 1066.8 1006.8C1102.3 1008.3 1137.7 987.7 1173.2 973C1208.7 958.3 1244.3 949.7 1280 946.8C1315.7 944 1351.3 947 1386.8 943.8C1422.3 940.7 1457.7 931.3 1493.2 936.7C1528.7 942 1564.3 962 1600 968.8C1635.7 975.7 1671.3 969.3 1706.8 961.5C1742.3 953.7 1777.7 944.3 1813.2 955.7C1848.7 967 1884.3 999 1902.2 1015L1920 1031L1920 1081L1902.2 1081C1884.3 1081 1848.7 1081 1813.2 1081C1777.7 1081 1742.3 1081 1706.8 1081C1671.3 1081 1635.7 1081 1600 1081C1564.3 1081 1528.7 1081 1493.2 1081C1457.7 1081 1422.3 1081 1386.8 1081C1351.3 1081 1315.7 1081 1280 1081C1244.3 1081 1208.7 1081 1173.2 1081C1137.7 1081 1102.3 1081 1066.8 1081C1031.3 1081 995.7 1081 960 1081C924.3 1081 888.7 1081 853.2 1081C817.7 1081 782.3 1081 746.8 1081C711.3 1081 675.7 1081 640 1081C604.3 1081 568.7 1081 533.2 1081C497.7 1081 462.3 1081 426.8 1081C391.3 1081 355.7 1081 320 1081C284.3 1081 248.7 1081 213.2 1081C177.7 1081 142.3 1081 106.8 1081C71.3 1081 35.7 1081 17.8 1081L0 1081Z" fill="#eb2400"></path></svg>